<?xml version="1.0" standalone="no"?>
<!DOCTYPE svg PUBLIC "-//W3C//DTD SVG 20010904//EN"
 "http://www.w3.org/TR/2001/REC-SVG-20010904/DTD/svg10.dtd">
<svg version="1.0" xmlns="http://www.w3.org/2000/svg"
 width="412.000000pt" height="520.000000pt" viewBox="0 0 412.000000 520.000000"
 preserveAspectRatio="xMidYMid meet">

<g transform="translate(0.000000,520.000000) scale(0.100000,-0.100000)"
fill="#000000" stroke="none">
<path d="M1483 4800 c-155 -88 -284 -168 -288 -177 -3 -10 -6 -108 -5 -218 0
-148 4 -205 14 -220 7 -11 75 -48 150 -82 l137 -61 39 77 39 78 -102 45 -102
44 0 124 0 124 239 137 c132 75 246 145 253 155 16 22 16 74 0 95 -16 21 -51
39 -75 39 -10 0 -145 -72 -299 -160z"/>
<path d="M2301 4934 c-34 -28 -42 -75 -18 -108 7 -10 121 -80 253 -155 l239
-137 0 -124 0 -124 -102 -44 -102 -45 39 -78 39 -77 137 61 c75 34 143 71 150
82 16 25 21 414 6 442 -13 23 -560 333 -588 333 -12 0 -36 -12 -53 -26z"/>
<path d="M1863 4605 c-36 -25 -113 -167 -113 -208 0 -20 3 -38 8 -40 15 -10
217 118 230 145 35 74 -58 150 -125 103z"/>
<path d="M2177 4600 c-31 -25 -41 -63 -25 -98 13 -27 215 -155 231 -145 4 2 7
20 7 40 0 41 -77 183 -113 208 -30 21 -70 19 -100 -5z"/>
<path d="M1970 4372 c-25 -12 -103 -57 -175 -100 l-130 -77 -107 -215 c-106
-213 -121 -258 -95 -290 7 -9 47 -44 90 -78 70 -58 83 -64 145 -74 37 -5 68
-11 70 -13 2 -1 -26 -19 -62 -39 -36 -20 -70 -45 -75 -54 -7 -13 -20 -193 -26
-346 0 -5 56 -37 125 -70 94 -46 126 -66 128 -82 2 -13 -18 -46 -53 -90 l-56
-69 3 -180 3 -180 78 -74 78 -74 -416 -212 c-229 -116 -423 -219 -433 -229
-15 -15 -17 -56 -20 -445 l-3 -429 23 -25 c27 -30 984 -587 1008 -587 24 0
981 557 1008 587 l23 25 -3 428 c-3 388 -5 430 -20 446 -10 11 -204 114 -433
229 l-415 210 77 75 78 75 3 180 3 180 -56 69 c-35 44 -55 77 -53 90 2 16 35
36 132 84 116 56 128 64 123 85 -3 12 -9 91 -13 175 -7 172 1 153 -103 217
l-53 32 71 11 c65 10 76 15 148 73 43 35 83 70 90 79 26 32 11 77 -95 290
l-107 215 -166 98 c-160 94 -169 98 -230 100 -50 2 -74 -3 -109 -21z m235
-218 c72 -42 135 -81 142 -87 6 -7 43 -78 82 -159 l70 -148 -33 -25 c-29 -22
-59 -29 -214 -51 l-181 -25 -183 26 c-155 22 -187 29 -214 50 l-33 25 70 148
c39 81 76 152 82 159 13 13 268 163 277 163 3 0 64 -34 135 -76z m17 -741
l148 -88 -2 -93 -3 -94 -129 -53 c-73 -29 -138 -62 -148 -75 l-18 -22 -18 22
c-10 13 -75 46 -148 75 l-129 53 -3 94 -2 93 147 87 c82 48 150 88 152 88 3 0
72 -39 153 -87z m-75 -593 l71 -99 3 -112 3 -113 -77 -69 -77 -70 -77 70 -77
69 3 113 3 112 71 99 c40 55 74 99 77 99 3 0 37 -44 77 -99z m358 -887 l425
-216 -2 -345 -3 -346 -240 -139 c-132 -77 -324 -188 -427 -248 l-188 -109
-427 248 -428 248 -3 346 -2 345 422 216 c233 119 429 216 435 216 7 1 204
-96 438 -216z"/>
<path d="M1685 1829 c-225 -105 -368 -178 -382 -194 -46 -53 -11 -135 57 -135
18 0 164 62 372 160 188 88 348 160 355 160 7 0 167 -72 355 -160 213 -100
354 -160 373 -160 66 0 106 94 60 139 -11 11 -185 96 -386 190 -285 133 -375
171 -405 170 -28 0 -137 -47 -399 -170z"/>
<path d="M1686 1511 c-236 -101 -376 -166 -388 -181 -24 -29 -23 -71 2 -103
40 -50 46 -48 425 113 194 82 358 150 363 150 5 0 153 -61 328 -136 410 -175
388 -167 428 -150 44 18 61 64 42 110 -13 31 -33 41 -393 194 -214 92 -392
162 -408 162 -17 -1 -196 -72 -399 -159z"/>
<path d="M1798 1243 c-147 -71 -276 -137 -287 -147 -27 -25 -28 -85 -2 -117
35 -44 74 -33 337 94 l242 117 248 -120 c137 -66 259 -120 272 -120 13 0 37
13 53 29 34 34 38 78 12 110 -22 25 -532 271 -577 277 -25 4 -85 -21 -298
-123z"/>
<path d="M1968 971 c-184 -84 -208 -103 -208 -161 0 -47 33 -80 79 -80 30 0
109 37 216 101 l31 18 108 -60 c119 -64 162 -73 196 -39 11 11 23 32 26 47 13
51 -12 73 -164 151 -79 39 -151 72 -160 72 -9 0 -65 -22 -124 -49z"/>
<path d="M840 3574 c-157 -91 -295 -175 -307 -187 -23 -20 -30 -67 -17 -102 9
-23 62 -48 88 -41 13 3 138 73 280 156 l257 150 193 -129 194 -128 6 45 c3 25
6 70 6 101 l0 56 -182 119 c-99 66 -193 121 -207 123 -19 3 -102 -41 -311
-163z"/>
<path d="M2787 3618 l-187 -123 0 -56 c0 -31 3 -77 6 -102 l6 -45 194 129 193
129 233 -136 c293 -171 305 -177 334 -170 63 16 87 101 42 143 -37 34 -591
353 -614 353 -11 0 -104 -55 -207 -122z"/>
<path d="M977 3135 c-15 -8 -127 -72 -249 -142 -187 -108 -223 -133 -234 -160
-15 -36 -11 -57 19 -90 39 -43 69 -33 301 102 l215 124 58 -20 c32 -11 166
-58 298 -104 132 -46 248 -86 258 -90 13 -6 17 -2 17 17 0 14 17 46 37 72 34
44 36 49 20 61 -18 13 -684 246 -702 245 -5 0 -23 -7 -38 -15z"/>
<path d="M2758 3028 c-192 -67 -348 -126 -348 -132 0 -6 16 -31 35 -55 19 -24
35 -54 35 -67 0 -13 1 -24 3 -24 1 0 143 49 315 110 l314 109 214 -124 c232
-135 262 -145 301 -102 31 33 35 58 15 95 -14 27 -61 59 -252 168 -129 75
-246 137 -260 140 -15 2 -162 -44 -372 -118z"/>
<path d="M891 2561 c-162 -93 -301 -177 -308 -187 -10 -14 -13 -121 -13 -515
l0 -497 32 -27 c38 -32 81 -29 116 11 l22 25 0 452 0 453 240 137 c132 75 245
137 251 137 6 0 103 -25 214 -55 112 -30 209 -55 215 -55 7 0 10 28 8 88 l-3
87 -210 57 c-115 31 -223 57 -240 57 -21 0 -117 -50 -324 -168z"/>
<path d="M2685 2672 l-210 -57 -3 -87 c-2 -53 1 -88 7 -88 5 0 102 25 215 55
112 30 209 55 215 55 6 0 119 -62 251 -137 l240 -137 0 -453 0 -452 24 -27
c31 -37 84 -38 121 -4 l25 23 0 494 c0 309 -4 501 -10 513 -16 29 -602 360
-636 359 -16 0 -123 -26 -239 -57z"/>
</g>
</svg>
